<?xml version="1.0" encoding="UTF-8"?>
<svg width="113px" height="34px" viewBox="0 0 113 34" version="1.1" xmlns="http://www.w3.org/2000/svg" xmlns:xlink="http://www.w3.org/1999/xlink">
    <!-- Generator: Sketch 60 (88103) - https://sketch.com -->
    <title>Group</title>
    <desc>Created with Sketch.</desc>
    <g id="Page-1" stroke="none" stroke-width="1" fill="none" fill-rule="evenodd">
        <g id="Group">
            <polygon id="Path" fill="#ffffff" points="18.6232578 0.0456291357 23.6889609 17.0456291 25.6232578 10.5049775 32.6232578 10.5049775 27.0582578 6.35191032 28.3922227 0.751675511 24.0144883 3.88918652"></polygon>
            <polygon id="Path-Copy" fill="#ffffff" points="3.62325782 10.9685131 20.6232578 11.0456291 15.3102775 7.10160781 17.5232679 0.0456291357 12.0021115 4.38885482 7.35116649 1.33670105 8.8091259 6.70607649"></polygon>
            <polygon id="Path-Copy-2" fill="#ffffff" points="9.12739012 29.0456291 14.6232578 12.1908049 8.96110739 16.3099438 2.56614686 12.0456291 5.17693502 18.7994652 0.623257818 22.5226446 6.49103473 22.6483336"></polygon>
            <polygon id="Path-Copy-3" fill="#ffffff" points="27.6232578 29.084133 12.8166131 19.0456291 14.9844629 25.0929378 8.62325782 29.031696 16.1730427 29.0491099 18.3220122 34.0456291 20.4171494 29.2036032"></polygon>
            <polygon id="Path-Copy-4" fill="#ffffff" points="34.3346999 12.0456291 19.6232578 22.0670827 26.4613826 22.0771801 28.5848046 29.0456291 30.8660643 22.289454 36.6232578 21.9773337 32.2965483 18.5381756"></polygon>
            <path d="M44.446,15 L44.446,9.6375 L48.8335,9.6375 L48.8335,7.1415 L44.446,7.1415 L44.446,4.08 L49.984,4.08 L49.984,1.5645 L41.5795,1.5645 L41.5795,15 L44.446,15 Z M54.671,15.1755 C55.373,15.1755 56.738,14.844 57.323,13.9665 L57.323,15 L60.014,15 L60.014,5.8935 L57.323,5.8935 L57.323,6.9075 C56.621,5.8935 55.256,5.6985 54.671,5.6985 C52.3505,5.6985 50.03,7.512 50.03,10.437 C50.03,13.362 52.3505,15.1755 54.671,15.1755 Z M55.1195,12.6015 C53.9885,12.6015 52.838,11.7435 52.838,10.437 C52.838,9.1305 53.9885,8.2725 55.1195,8.2725 C56.231,8.2725 57.323,9.072 57.323,10.437 C57.323,11.802 56.231,12.6015 55.1195,12.6015 Z M64.7205,15 L64.7205,10.1835 C64.7205,8.799 65.442,8.331 66.3975,8.331 C67.314,8.331 67.977,8.9355 67.977,10.1445 L67.977,15 L70.6875,15 L70.6875,15 L70.6875,9.5595 C70.6875,6.966 69.4005,5.6985 67.353,5.6985 C66.2805,5.6985 65.208,6.303 64.7205,7.2195 L64.7205,5.8935 L62.01,5.8935 L62.01,15 L64.7205,15 Z M76.135,15 L76.135,8.0385 L78.046,8.0385 L78.046,5.8935 L76.135,5.8935 L76.135,2.403 L73.444,2.403 L73.444,5.8935 L71.7865,5.8935 L71.7865,8.0385 L73.444,8.0385 L73.444,15 L76.135,15 Z M83.162,15.1755 C83.864,15.1755 85.229,14.844 85.814,13.9665 L85.814,15 L88.505,15 L88.505,5.8935 L85.814,5.8935 L85.814,6.9075 C85.112,5.8935 83.747,5.6985 83.162,5.6985 C80.8415,5.6985 78.521,7.512 78.521,10.437 C78.521,13.362 80.8415,15.1755 83.162,15.1755 Z M83.6105,12.6015 C82.4795,12.6015 81.329,11.7435 81.329,10.437 C81.329,9.1305 82.4795,8.2725 83.6105,8.2725 C84.722,8.2725 85.814,9.072 85.814,10.437 C85.814,11.802 84.722,12.6015 83.6105,12.6015 Z M93.7575,15.195 C95.6685,15.195 97.6965,14.2785 97.6965,12.348 C97.6965,11.763 97.4235,10.3005 95.22,9.696 L93.6795,9.2865 C93.1335,9.15 92.8995,8.877 92.88,8.604 C92.8605,8.1945 93.2505,7.9215 93.8355,7.9215 C94.2645,7.9215 94.8495,8.0385 94.869,8.721 L97.4235,8.721 C97.404,6.498 95.493,5.6985 93.6795,5.6985 C91.7685,5.6985 90.15,6.9465 90.1305,8.292 C90.111,9.1305 90.1305,10.515 92.8605,11.256 L94.05,11.568 C94.713,11.7435 94.947,11.958 94.947,12.348 C94.947,12.816 94.44,13.089 93.8355,13.1085 C93.0945,13.1085 92.5095,12.582 92.49,12.0555 L89.955,12.0555 C89.9745,14.0835 91.905,15.195 93.7575,15.195 Z M101.974,19.4655 L107.59,5.8935 L104.704,5.8935 L102.676,11.061 L100.6675,5.8935 L97.7815,5.8935 L101.2915,14.064 L99.1075,19.4655 L101.974,19.4655 Z M44.446,31 L44.446,25.6375 L48.8335,25.6375 L48.8335,23.1415 L44.446,23.1415 L44.446,20.08 L49.984,20.08 L49.984,17.5645 L41.5795,17.5645 L41.5795,31 L44.446,31 Z M55.912,31.156 C58.486,31.156 60.6505,29.284 60.6505,26.4175 C60.6505,23.551 58.486,21.6985 55.912,21.6985 C53.338,21.6985 51.193,23.551 51.193,26.4175 C51.193,29.284 53.338,31.156 55.912,31.156 Z M55.912,28.504 C54.8005,28.504 53.8645,27.685 53.8645,26.4175 C53.8645,25.189 54.8005,24.3505 55.912,24.3505 C57.043,24.3505 57.979,25.189 57.979,26.4175 C57.979,27.685 57.043,28.504 55.912,28.504 Z M66.7735,31.156 C69.3475,31.156 71.512,29.284 71.512,26.4175 C71.512,23.551 69.3475,21.6985 66.7735,21.6985 C64.1995,21.6985 62.0545,23.551 62.0545,26.4175 C62.0545,29.284 64.1995,31.156 66.7735,31.156 Z M66.7735,28.504 C65.662,28.504 64.726,27.685 64.726,26.4175 C64.726,25.189 65.662,24.3505 66.7735,24.3505 C67.9045,24.3505 68.8405,25.189 68.8405,26.4175 C68.8405,27.685 67.9045,28.504 66.7735,28.504 Z M77.011,31 L77.011,24.0385 L78.922,24.0385 L78.922,21.8935 L77.011,21.8935 L77.011,18.403 L74.32,18.403 L74.32,21.8935 L72.6625,21.8935 L72.6625,24.0385 L74.32,24.0385 L74.32,31 L77.011,31 Z M85.942,31.195 C88.282,31.195 90.349,29.3425 90.349,26.476 C90.349,23.551 88.282,21.6985 85.942,21.6985 C84.811,21.6985 83.719,22.1665 83.2705,23.005 L83.2705,16.9405 L80.5795,16.9405 L80.5795,31 L83.2705,31 L83.2705,29.869 C83.719,30.7075 84.811,31.195 85.942,31.195 Z M85.435,28.621 C84.304,28.621 83.329,27.724 83.329,26.4175 C83.329,25.0525 84.3235,24.253 85.435,24.253 C86.5855,24.253 87.541,25.111 87.541,26.4175 C87.541,27.763 86.5855,28.621 85.435,28.621 Z M96.4135,31.1755 C97.1155,31.1755 98.4805,30.844 99.0655,29.9665 L99.0655,31 L101.7565,31 L101.7565,21.8935 L99.0655,21.8935 L99.0655,22.9075 C98.3635,21.8935 96.9985,21.6985 96.4135,21.6985 C94.093,21.6985 91.7725,23.512 91.7725,26.437 C91.7725,29.362 94.093,31.1755 96.4135,31.1755 Z M96.862,28.6015 C95.731,28.6015 94.5805,27.7435 94.5805,26.437 C94.5805,25.1305 95.731,24.2725 96.862,24.2725 C97.9735,24.2725 99.0655,25.072 99.0655,26.437 C99.0655,27.802 97.9735,28.6015 96.862,28.6015 Z M106.963,31 L106.963,16.9405 L104.2525,16.9405 L104.2525,31 L106.963,31 Z M112.1695,31 L112.1695,16.9405 L109.459,16.9405 L109.459,31 L112.1695,31 Z" id="FantasyFootball" fill="#FFFFFF" fill-rule="nonzero"></path>
        </g>
    </g>
</svg>